<svg xmlns="http://www.w3.org/2000/svg" width="585.157" height="508.408" viewBox="0 0 154.823 134.516">
  <path
    d="M19.278 134.44c-5.238-.994-9.848-3.496-13.259-7.196-2.827-3.068-4.858-7.055-5.678-11.145-.585-2.92-.394-8.474.39-11.389.84-3.117 2.483-6.17 4.219-7.84.822-.793 26.57-22.912 57.218-49.155L117.89 0l1.13 1.311c.62.721 1.025 1.404.898 1.518-.127.113-14.875 12.736-32.774 28.05-17.9 15.315-32.872 28.193-33.272 28.618-.77.816-.95 1.969-.455 2.895.393.733 1.782 1.38 2.55 1.188.356-.09 16.476-13.742 35.821-30.338 19.346-16.597 35.27-30.137 35.39-30.088.286.118 2.167 2.225 2.167 2.43 0 .087-19.675 17.021-43.723 37.631-24.047 20.61-44.11 37.876-44.582 38.368-1.714 1.783-.74 4.235 1.6 4.032 1.05-.09 3.235-1.917 39.325-32.88l38.213-32.783 1.394 1.567c1.064 1.195 1.32 1.637 1.078 1.863-.174.162-21.654 18.587-47.734 40.943-26.079 22.356-47.54 40.879-47.69 41.16-.86 1.605.229 3.459 2.028 3.458.953 0 3.668-2.286 53.127-44.72l52.123-44.718 1.124 1.254c.619.69 1.125 1.326 1.125 1.412 0 .087-18.604 16.104-41.341 35.594-22.738 19.49-41.907 35.958-42.598 36.597-1.087 1.003-1.257 1.3-1.257 2.194 0 1.406.917 2.333 2.307 2.333.958 0 3.402-2.053 48.976-41.142C129.22 35.118 150.894 16.604 151 16.604c.298 0 2.207 2.368 2.11 2.617-.047.121-17.35 15.014-38.45 33.096-21.1 18.08-38.57 33.129-38.821 33.44-.66.814-.588 2.117.164 2.991.494.575.863.737 1.68.737 1.007 0 2.429-1.187 38.132-31.815l37.086-31.814.856.965c.47.531.95 1.127 1.065 1.324.151.258-16.364 14.563-59.604 51.624-48.22 41.331-60.209 51.483-61.857 52.38-3.09 1.684-5.574 2.276-9.85 2.352-1.964.035-3.87.007-4.233-.062z" />
</svg>