<svg xmlns="http://www.w3.org/2000/svg" width="585.157" height="508.408" viewBox="0 0 154.823 134.516">
  <path
    d="M19.278 134.44c-5.238-.994-9.848-3.496-13.259-7.196-2.827-3.068-4.858-7.055-5.678-11.145-.585-2.92-.394-8.474.39-11.389.84-3.117 2.483-6.17 4.219-7.84.822-.793 26.57-22.912 57.218-49.155L117.89 0l1.13 1.311c.62.721 1.025 1.404.898 1.518-.127.113-14.875 12.736-32.774 28.05-17.9 15.315-32.872 28.193-33.272 28.618-.77.816-.95 1.969-.455 2.895.393.733 1.782 1.38 2.55 1.188.356-.09 16.476-13.742 35.821-30.338 19.346-16.597 35.27-30.137 35.39-30.088.286.118 2.167 2.225 2.167 2.43 0 .087-19.675 17.021-43.723 37.631-24.047 20.61-44.11 37.876-44.582 38.368-1.714 1.783-.74 4.235 1.6 4.032 1.05-.09 3.235-1.917 39.325-32.88l38.213-32.783 1.394 1.567c1.064 1.195 1.32 1.637 1.078 1.863-.174.162-21.654 18.587-47.734 40.943-26.079 22.356-47.54 40.879-47.69 41.16-.86 1.605.229 3.459 2.028 3.458.953 0 3.668-2.286 53.127-44.72l52.123-44.718 1.124 1.254c.619.69 1.125 1.326 1.125 1.412 0 .087-18.604 16.104-41.341 35.594-22.738 19.49-41.907 35.958-42.598 36.597-1.087 1.003-1.257 1.3-1.257 2.194 0 1.406.917 2.333 2.307 2.333.958 0 3.402-2.053 48.976-41.142 26.38-22.629 48.054-41.143 48.16-41.143.298 0 2.207 2.368 2.11 2.617-.047.121-17.35 15.014-38.45 33.096-21.1 18.08-38.57 33.129-38.821 33.44-.66.814-.588 2.117.164 2.991.494.575.863.737 1.68.737 1.007 0 2.429-1.187 38.132-31.815l37.086-31.814.856.965c.47.531.95 1.127 1.065 1.324.151.258-16.364 14.563-59.604 51.624-48.22 41.331-60.209 51.483-61.857 52.38-3.09 1.684-5.574 2.276-9.85 2.352-1.964.035-3.87.007-4.233-.062z" />
  <path
    d="M15.482 133.549c-3.94-1.427-8.441-4.74-11.004-8.1-3.07-4.025-4.36-8.27-4.36-14.344 0-6.223 1.335-10.48 4.283-13.656C8.134 93.427 117.74-.043 118.31.31c.319.197.844.853 1.168 1.458.514.962-3.463 4.573-31.464 28.566-17.629 15.106-32.666 28.05-33.416 28.764-1.705 1.623-1.528 3.772.334 4.037 1.446.205.728.79 36.485-29.748 11.05-9.437 23.606-20.141 27.9-23.787l7.81-6.63 1.236 1.327 1.236 1.327-1.432 1.183c-3.658 3.02-84.25 72.427-85.944 74.016-2.184 2.048-2.43 3.377-.79 4.255 1.596.854 2.767-.088 42.354-34.05 18.878-16.196 34.797-29.838 35.375-30.315.947-.782 1.193-.701 2.5.818.797.926 1.232 1.873.966 2.104-.265.23-18.432 15.807-40.37 34.615-56.253 48.227-54.66 46.81-54.66 48.637 0 2.633 1.799 2.209 6.334-1.495 2.32-1.895 25.885-22.01 52.365-44.702l48.147-41.256 1.238 1.263 1.237 1.264-2.861 2.614c-1.574 1.437-20.454 17.729-41.956 36.203C70.599 79.251 52.623 94.831 52.154 95.4c-.626.757-.687 1.293-.232 2.016 1.08 1.716 2.294 1.41 5.873-1.481 2.566-2.073 65.953-56.141 91.15-77.75 1.888-1.618 2.036-1.65 3.103-.686.616.558 1.12 1.21 1.12 1.448 0 .239-17.429 15.417-38.731 33.729-33.992 29.22-38.71 33.477-38.558 34.782.114.98.59 1.548 1.395 1.663 1.326.19 6.706-4.268 50.324-41.696 13.725-11.777 25.162-21.413 25.416-21.413.253 0 .79.526 1.191 1.169.886 1.42 1.596.788-63.084 56.195-55.151 47.244-56.378 48.267-59.657 49.749-3.896 1.76-11.719 1.969-15.982.425z"
    fill="#fff" /></svg>