<svg xmlns="http://www.w3.org/2000/svg" viewBox="0 0 100.711 89.583">
  <path
    d="M77.983 89.263c-4.068-.757-7.295-2.382-10.303-5.187-1.028-.958-16.275-14.099-33.883-29.202C16.19 39.772 1.381 27.026.891 26.551L0 25.687l.912-.995c.674-.736 1.016-.934 1.312-.758.22.13 9.537 8.095 20.706 17.7C34.099 51.237 43.457 59.2 43.726 59.326c1.314.622 2.906-.797 2.476-2.208-.174-.57-5.661-5.422-21.268-18.805-11.57-9.92-21.365-18.355-21.769-18.747l-.733-.71.952-1.114c.525-.612 1.052-1.113 1.173-1.113s12.346 10.42 27.166 23.154c25.262 21.708 27.001 23.15 27.845 23.085 1.233-.095 2.09-1.213 1.725-2.251-.172-.491-8.025-7.4-24.114-21.217C22.039 26.4 13.388 18.8 13.505 18.601c.101-.173.57-.75 1.044-1.284l.86-.97 28.905 24.82c15.899 13.651 29.2 25.026 29.56 25.277 1.448 1.01 3.013.14 2.867-1.595-.078-.924-1.175-1.903-26.613-23.748C35.536 28.57 23.406 18.126 23.173 17.893c-.39-.389-.328-.535.734-1.77.638-.74 1.226-1.345 1.308-1.345.082 0 9.726 8.229 21.431 18.286 11.705 10.057 21.545 18.408 21.866 18.558.417.194.814.176 1.392-.063.837-.347 1.178-1.066 1.023-2.16-.064-.45-6.997-6.556-25.153-22.147L20.71 5.727l.953-1.163c.524-.64 1.061-1.163 1.193-1.163.21 0 6.525 5.386 33.101 28.235 5.7 4.901 6.665 5.631 7.434 5.631.52 0 1.064-.199 1.321-.483.572-.632.56-1.965-.025-2.632-.254-.29-8.5-7.405-18.322-15.81-9.823-8.406-18.08-15.49-18.35-15.742-.475-.445-.46-.494.476-1.53L29.458 0l31.01 26.622c17.054 14.643 31.88 27.403 32.946 28.358 3.367 3.014 5.764 6.741 6.818 10.598.627 2.297.641 6.913.028 9.26-2.602 9.954-12.357 16.27-22.277 14.425z" />
</svg>