<svg xmlns="http://www.w3.org/2000/svg" width="1034.669" height="1034.669" viewBox="0 0 776 776">
  <path fill="none" stroke="#000"
    d="M106.4 478L98 455c-5.74-17.39-9.83-39.78-12.28-58-1.17-8.64-2.71-17.25-2.72-26v-31c.18-14.79 4.97-40.37 8.63-55C123.53 157.41 246.49 66.6 376 60.96l11-.96h4l12 1.04h10c17.14 1.76 34.42 4.66 51 9.39 39.68 11.32 82.77 36.27 114 63 16.22 13.88 21.61 21.5 35.17 36.57l29.2 34c19.52 26.23 33.08 51.7 42.49 83 3.14 10.46 7.71 32.42 7.1 43-.14 2.36-.49 5.27-3.19 6.05-2.1.62-6.47-1.26-8.77-1.81-5.07-1.23-10.8-1.59-16-1.25-6.82.86-10.53 3.73-12.41 0L649.95 322l-2.83-15c-4.11-17.34-8.67-28.88-15.98-45-13.7-30.18-37.87-59.72-61.14-83l-25-24.71c-13.98-12.16-30.62-22.37-47-30.97-61.01-32.02-146.88-39.82-212-16.63-29.14 10.38-61.08 29.78-84 50.48L188 171c-22.26 22.03-33.66 35.21-48.69 63-17.6 32.54-29.88 72.89-30.31 110l-.82 12 .82 17c.1 7.97 6.88 44.01 9.13 53C136.58 499.82 186.4 561.44 252 599.28c33.8 19.51 59.87 29.07 99 31.81l10 .91c44.04.51 91.28-17.76 127-42.77l18-14.65c22.11-19.09 40.72-44.51 53.75-70.58 14.97-29.94 22.02-63.8 24.34-97l.91-12v-22c-.13-11.12-3.47-31.49-9.09-41-2.14-3.61-6.78-10.68-11.8-9.16-3.9 1.18-7.32 11.46-8.97 15.16l-20.72 39C508 423.09 475.57 465.49 438 503c-9.08 9.07-19.03 17.25-30 23.94-4.42 2.69-12.81 6.72-18 6.72-7.44 0-14.39-5.46-19.08-10.75-10.63-12.02-15.65-30.18-16.92-45.91-4.92 2.76-9.91 12.22-14.17 17-8.52 9.54-23.39 23.49-34.83 29.19-21.01 10.48-48.7-2.17-49-27.19v-8c.02-13.41 3.89-27.05 7.13-40 5.58-22.31 13.92-43.45 21.82-65L297 348c6.88-20.63 13.97-36.61 14-59 .01-5.78-.04-11.5-2.13-17-3.93-10.39-15-16.54-25.87-15.91-13.15.77-23.92 7.9-33 16.91-14.74 14.64-24.81 31.81-32.4 51-2.88 7.29-6.86 23.34-6.28 31 1.04 13.57 7.22 25.04 22.68 18.03 5.99-2.72 7.91-8.4 11.96-8.98 3.87-.55 4.97 4 4.47 6.95-1.51 8.89-12.77 18.47-21.43 19.79-4.96.75-11.06-.11-16-.79-10.03-1.39-23.18-4.59-30.96-11.33-8.9-7.71-12.3-20.3-12.95-31.67-.7-12.44 5.36-31.73 10.62-43 16.3-34.93 45.75-60.3 82.29-72.33 26.27-8.65 58.51-9.84 75.45 16.33 6.26 9.66 9.42 26.54 9.55 38l-1 23c-.36 30.2-19.05 69.65-31.14 97L302 442c-3.38 10.23-7.11 22.2-7 33 .05 4.56.42 10.12 5.11 12.39 5.34 2.59 12.6-1.12 16.88-4.32 8.23-6.15 23.13-26.14 29.84-35.07 7-9.31 25.18-41.12 28.45-52l6.8-40c2.08-12.35 5.68-24.07 9.33-36 3.79-12.37 8.27-21.8 16.41-32 3.84-4.81 9.9-10.29 16.18-11.43 4.51-.82 8.51 1.57 11.99 4.19 12.01 9.06 12.03 24.91 9.21 38.24-1.49 7.04-5.88 17.21-8.78 24l-18.67 40c-10.03 20.06-18.72 35.63-18.75 59-.01 6.98-.01 11.39 2.88 18 .93 2.12 2.54 5.71 5.22 5.84 2.4.12 7.04-3.77 8.9-5.3 5.83-4.79 16.87-15.74 21.75-21.54l17.96-24c8.86-12.59 17.61-29.15 24.54-43l17.61-40c3.25-7.35 8.7-16.31 10.14-24-13.69-2.12-23.93-12.48-22.67-27 1.92-22.29 24.41-47.27 44.67-55.19 18.57-7.25 37.56-3.32 46.48 16.19 3.11 6.79 4.67 15.55 4.51 23-.29 12.65-4.38 19.87-6.99 31 3.68.6 5.92 1.2 8.96 3.56 9.31 7.21 18.1 30.85 20.81 42.44 4.28 18.37 4.26 42.05 4.23 61-.01 8.45-1.52 17.61-2.73 26-3.49 24.22-5.61 37.52-13.96 61-10.88 30.56-29.76 62.95-51.48 87-35.48 39.29-83.12 65.27-134.83 75.6-8.77 1.75-26.32 4.29-35 4.4h-21c-6.73-.01-14.3-.94-21-1.87-36-5-65.79-15.37-97-34.13-40.01-24.06-70.48-52.54-96.98-91l-17.18-29c-2.19-4.54-4.32-6.88-3.84-12-3.93-2.53-4.92-6.79-6.6-11zm406.71-203c-1.62 4.66-.65 14.42 6.72 12.29 2.47-.71 4.73-4.28 6.17-6.29l7.02-10c3.75-5.41 10.24-13.2-2.02-12.57-7.9 2.22-15.17 8.74-17.89 16.57zM435 282l1 1v-1h-1zm-245 9l1 1v-1h-1zm449.32 91c.88-5.25 3.57-10.89 7.15-14.83 17.71-19.5 49.21-7.92 50.77 17.83.57 9.28-4.74 23.15-14.24 26l-3-8c-7.56-1.52-13.33-6.45-23-5.68-6.28.5-9.36 2.16-15 3.68-2.54-5.97-3.76-12.51-2.68-19zm37.66 54c3.33 4.26 5.55 8.52 5.92 14 .51 7.41-3.21 13.44-6.05 20l-15.54 35-59.06 123-20.01 38c-2.27 4.47-5.18 11.92-10.26 13.43-14.81 4.41-36-11.35-44.22-22.43-3.85-5.19-8.11-13.44-5.61-20 1.99-5.23 7.33-8.12 11.13-12.09L560.72 595c22.73-26.49 49.57-63.65 62.68-96 5.81-14.35 11.58-33.49 11.6-49 .02-11.18-1.8-21.53 11.09-26.46 12.71-2.24 23.02 2.38 30.89 12.46zM110 484l1 1v-1h-1zm3 7l1 1v-1h-1zm317 13l1 1v-1h-1z" />
  </svg>