<svg xmlns="http://www.w3.org/2000/svg" width="1034.667" height="1034.667">
   <path
      d="M739.85 904.831c-11.62-4.102-21.9-11.073-31.57-21.41-16.844-18.006-19.212-34.314-6.402-44.085 8.288-6.322 35.254-35.308 51.478-55.336 3.267-4.033 6.264-7.633 6.659-8 .71-.66 18.63-23.96 22.834-29.692 14.499-19.764 34.161-52.765 42.288-70.975 13.794-30.907 20.196-56.977 20.196-82.24 0-16.158 1.012-19.333 8.2-25.744 3.892-3.472 5.67-4.045 13.8-4.452 13.142-.657 22.601 3.061 31.946 12.557 9.683 9.838 12.056 15.067 12.048 26.546-.004 6.766-.79 10.984-2.858 15.333-1.568 3.3-10.044 22.2-18.836 42C861.68 722.288 820.695 807.11 791.707 862c-6.972 13.2-14.982 28.412-17.8 33.805-3.28 6.274-6.258 10.235-8.27 11-5.506 2.093-16.69 1.237-25.787-1.974zm23.12-.693c2.013-.765 4.99-4.726 8.27-11 2.819-5.393 10.829-20.605 17.8-33.805 28.989-54.89 69.974-139.712 97.926-202.666 8.792-19.8 17.253-38.7 18.802-42 3.537-7.535 3.695-17.616.382-24.348-1.357-2.759-5.65-8.248-9.538-12.199-12.863-13.07-30.814-16.632-40.482-8.032-7.111 6.325-8.13 9.542-8.13 25.671 0 25.263-6.402 51.333-20.196 82.241-8.127 18.21-27.79 51.21-42.288 70.975-4.205 5.731-22.124 29.032-22.835 29.692-.395.366-3.39 3.966-6.658 8-16.225 20.028-43.19 49.014-51.478 55.336-2.656 2.025-5.65 5.652-6.657 8.06-3.488 8.346 2.92 21.443 16.994 34.735 9.26 8.746 16.991 13.59 27.785 17.411 9.268 3.281 15.252 3.85 20.304 1.929zM450 876.458c-63.83-7.597-111.308-24.92-159.829-58.316-35.036-24.115-41.908-29.726-66.225-54.07-48.004-48.059-83.468-110.574-99.882-176.072-9.93-39.622-13.45-64.936-14.331-103.054-.996-43.095 2.131-71.027 12.311-109.952 11.652-44.55 34.611-92.045 61.67-127.572 3.39-4.449 6.49-8.389 6.89-8.755.401-.367 3.097-3.667 5.991-7.334 10.932-13.85 42.013-44.266 58.777-57.519 24.674-19.507 46.601-33.857 69.678-45.6 111.007-56.488 229.906-64.472 331.617-22.269 54.085 22.443 114.38 64.536 147.557 103.015 6.11 7.086 15.326 17.42 20.48 22.962 22.484 24.178 41.818 49.684 56.705 74.803 13.032 21.99 26.743 51.966 31.187 68.182a3079.365 3079.365 0 004 14.426c3.187 11.367 5.94 28.686 6.897 43.39.77 11.817.59 13.67-1.521 15.781-2.512 2.512-2.851 2.485-15.305-1.19-8.358-2.466-26.253-2.06-32.294.734-5.457 2.523-7.215.173-8.278-11.07-2.656-28.073-15.646-68.452-31.411-97.645-20.071-37.163-41.747-65.315-80.781-104.918-26.494-26.88-36.293-35.248-57.903-49.446-94.646-62.183-225.094-76.871-326-36.707-16.761 6.671-31.512 14.018-42.667 21.251a17842.39 17842.39 0 01-18.666 12.07c-19.673 12.705-34.832 25.363-58.442 48.798-21.74 21.578-34.268 36.223-45.87 53.619-28.863 43.279-48.837 96.402-55.88 148.621-1.202 8.922-1.98 25.208-1.976 41.379.007 24.447.402 28.975 4.748 54.4 5.498 32.164 9.211 47.565 16.717 69.334 28.113 81.529 86.2 150.69 167.37 199.273 46.182 27.643 87.228 40.518 139.333 43.703 38.28 2.34 88.996-9.395 131.64-30.461 54.805-27.074 100.998-71.002 130.917-124.498C756.827 650.7 767.911 616.03 774.87 568c3.658-25.249 4.383-77.877 1.303-94.573-4.686-25.396-15.686-44.787-23.924-42.173-1.275.405-4.054 4.788-6.175 9.741-14.919 34.827-45.914 88.09-74.94 128.777-43.599 61.112-93.177 113.941-125.134 133.34-11.343 6.885-22.733 10.658-29.1 9.64-21.604-3.455-40.601-32.32-45.57-69.246l-.875-6.493-5.448 8.493c-7.337 11.437-35.216 38.994-48.106 47.552-14.313 9.501-22.427 11.739-36.372 10.028-17.654-2.166-29.6-9.521-36.213-22.3-2.999-5.793-3.593-8.888-4.063-21.152-.303-7.901.169-19.301 1.047-25.333 3.683-25.285 17.71-73.448 32.708-112.301 8.713-22.573 33.898-97.045 36.086-106.706 1.667-7.359 2.433-16.376 2.49-29.32.077-17.514-.132-19.113-3.323-25.322-9.315-18.124-31.058-22.677-54.107-11.33-27.065 13.324-60.453 62.52-69.193 101.952-4.232 19.097-2.565 37.188 3.995 43.351 7.349 6.904 20.404 4.529 30.1-5.478 7.268-7.501 11.21-8.158 14.43-2.403 4.581 8.192-3.324 22.432-17.068 30.742-7.846 4.744-9.362 5.177-17.993 5.134-10.648-.052-26.72-2.644-37.583-6.061-24.958-7.85-37.093-26.148-37.065-55.892.033-36.289 18.623-76.34 49.819-107.334 47.838-47.528 119.485-66.796 157.74-42.421 23.441 14.935 32.914 41.512 30.991 86.947-1.834 43.345-10.294 73.985-36.302 131.474-10.194 22.535-13.828 32.05-21.894 57.334-10.049 31.5-12.509 47.07-9.02 57.08 2.892 8.294 14.819 7.757 26.297-1.186 6.864-5.348 33.635-37.511 41.592-49.97 15.462-24.211 32.196-55.5 35.227-65.867 1.17-4.002 3.336-15.702 4.814-26 7.532-52.481 17.39-86.086 31.684-107.997 11.648-17.857 24.984-27.52 35.217-25.52 6.281 1.227 16.32 9.06 20.285 15.825 5.04 8.601 7.064 23.697 4.901 36.569-2.778 16.533-15.205 46.564-38.786 93.732-19.641 39.288-23.29 51.284-23.322 76.667-.018 14.612.292 16.665 3.573 23.667 1.976 4.216 3.972 7.666 4.435 7.666 3.462 0 29.497-24.012 41.528-38.302 25.222-29.96 48.94-70.63 70.194-120.364 5.485-12.834 12.735-29.187 16.111-36.342 3.376-7.155 6.139-13.227 6.139-13.493 0-.267-2.729-1.25-6.064-2.183-12.883-3.607-21.9-14.642-23.964-29.329-3.802-27.05 28-69.478 61.539-82.102 35.69-13.434 65.208 6.86 68.048 46.782.842 11.834-1.89 29.668-6.234 40.687l-2.546 6.46 4.125.905c12.29 2.7 29.95 34.58 36.285 65.498 5.988 29.232 6.106 81.692.271 120.45-7.781 51.682-19.977 87.539-45.046 132.438-26.055 46.664-67.71 89.504-114.535 117.794-39.079 23.61-86.47 39.686-133.05 45.135-14.924 1.745-53.827 2.4-64.829 1.09zm62.163-3.758c46.579-5.449 93.97-21.526 133.049-45.135 46.825-28.29 88.48-71.13 114.535-117.794 25.086-44.929 37.304-80.864 45.028-132.438 5.768-38.51 5.663-86.239-.253-115.116-6.348-30.986-23.996-62.8-36.341-65.51-5-1.099-5.263-3.196-1.579-12.544 4.156-10.544 7.14-29.033 6.189-38.353-2.415-23.661-15.227-40.846-34.665-46.497-9.036-2.627-15.914-1.958-28.476 2.77-33.022 12.43-65.644 56.074-60.186 80.521 2.92 13.082 11.018 21.855 23.536 25.501 7.422 2.162 7.375 4.259-.472 20.887-3.377 7.154-10.627 23.508-16.11 36.341-18.563 43.435-41.68 84.496-62.692 111.355C575.987 599.363 549.066 624 542.028 624c-2.966 0-4.065-1.186-7.102-7.667-3.366-7.183-3.592-8.843-3.588-26.333.007-28.238 3.171-38.996 23.337-79.333 22.59-45.187 35.641-76.375 38.6-92.248 1.298-6.965 1.317-10.954.09-18.237-1.802-10.677-7.77-21.515-11.847-21.515-1.397 0-2.826-1.092-3.175-2.426-.348-1.334-2.818-3.462-5.488-4.729-4.657-2.21-5.096-2.197-10.783.319-15.199 6.723-29.944 28.784-39.77 59.502-7.656 23.933-10.719 38.086-15.595 72.058-1.478 10.298-3.644 21.998-4.814 26-3.03 10.367-19.764 41.656-35.226 65.866-7.957 12.46-34.728 44.623-41.592 49.97-12.413 9.67-28.465 10.265-31.635 1.173-5.998-17.207 6.59-65.955 30.919-119.733 25.097-55.477 33.438-84.38 35.785-124 2.317-39.092-2.805-61.324-18.025-78.253-15.884-17.667-39.637-24.66-67.4-19.84-35.673 6.192-70.485 24.574-97.395 51.426-14.988 14.957-26.96 30.667-23.37 30.667 1.125 0 2.046.9 2.046 2s-.9 2-2 2-2-.734-2-1.63c0-4.16-10.966 16.608-16.417 31.094-7.987 21.22-10.175 43.859-5.723 59.202 2.764 9.528 9.63 20.459 15.811 25.174 10.06 7.672 29.113 13.533 48.983 15.065 9.609.74 10.796.533 17.43-3.055 13.158-7.116 23.274-20.91 19.924-27.168-2.136-3.992-4.294-3.313-10.134 3.185-6.154 6.85-13.396 9.39-24.207 8.494-4.864-.404-7.997-1.499-10.197-3.566-9.771-9.18-8.78-41.781 2.11-69.462 13.793-35.059 41.067-70.453 62.57-81.197 28.492-14.238 57.414-5.227 62.595 19.502 2.197 10.49.73 40.477-2.66 54.362-2.42 9.912-27.272 82.895-35.413 104-15.037 38.98-29.023 87.021-32.717 112.383-2.425 16.646-1.228 32.723 3.056 41.07 6.162 12.004 17.697 19.588 33.54 22.055 11.553 1.798 19.854-.609 33.683-9.768 12.725-8.428 41.944-37.42 48.433-48.057 3.378-5.537 5.472-7.654 7.585-7.666 2.476-.015 3.047.94 3.768 6.316 4.662 34.746 21.899 62.574 42.4 68.454 8.16 2.34 25.76-6.49 46.913-23.534 12.506-10.078 40.063-37.566 56.059-55.92 46.85-53.758 98.872-133.937 123.277-190 2.394-5.5 5.023-10.44 5.842-10.98 2.162-1.422 8.593-1.236 11.526.333 4.07 2.179 10.576 12.69 13.897 22.452 5.698 16.753 6.736 26.642 6.673 63.528-.049 28.73-.573 38.206-3.062 55.334-9.918 68.258-30.436 116.794-69.046 163.333-38.037 45.847-86.15 78.237-143.166 96.381-31.38 9.987-62.217 14.474-90.048 13.103-53.28-2.625-95.454-15.58-142.618-43.81-71.786-42.967-124.698-101.029-156.716-171.968-12.524-27.75-20.235-54.955-27.392-96.64-4.47-26.037-4.762-29.526-4.773-57.066-.007-18.798.71-34.617 1.998-44.045 8.496-62.209 34.08-122.921 71.62-169.955 11.547-14.468 47.672-50.36 63.263-62.855 6.6-5.29 18-13.493 25.333-18.23 7.333-4.735 15.733-10.167 18.667-12.069 23.352-15.141 59.027-29.208 91.333-36.012 96.155-20.252 203.158-.769 282.667 51.469 8.433 5.54 19.68 13.626 24.994 17.967 13.974 11.416 53.883 52.324 69.978 71.73 42.373 51.089 68.09 106.208 74.929 160.592 1.362 10.836 1.787 12.035 4.142 11.684 12.867-1.915 28.095-1.774 36.793.34 7.908 1.922 9.718 2.009 10.733.514 2.333-3.43-1.555-36.183-6.307-53.13-1.13-4.033-2.93-10.525-4-14.426-4.443-16.216-18.155-46.192-31.187-68.183-14.886-25.118-34.221-50.624-56.704-74.802-5.154-5.543-14.37-15.876-20.48-22.962-38.684-44.865-108.613-90.636-170.891-111.856-39.476-13.45-89.798-20.062-130.782-17.183-97.599 6.856-187.095 44.334-258.513 108.257-13.614 12.185-34.814 33.912-42.11 43.155-2.894 3.667-5.59 6.967-5.99 7.333-2.394 2.19-14.409 18.926-22.558 31.422-11.53 17.68-28.522 51.842-35.933 72.24-24.496 67.42-29.098 137.862-14.002 214.338 2.864 14.51 8.083 35.505 11.434 46 5.001 15.666 13.402 36.639 15.278 38.147 1.013.815 1.842 2.765 1.842 4.334 0 1.569.589 2.853 1.308 2.853.72 0 1.677 1.65 2.127 3.666 2.958 13.25 25.876 50.662 48.392 79C219.49 756.4 250.853 786.216 273.393 802c43.74 30.63 63.344 41.345 99.274 54.26 23.475 8.438 47.1 13.616 80 17.531 10.75 1.28 44.525.66 59.496-1.091zM572 672.667c0-1.1.9-2 2-2s2 .9 2 2-.9 2-2 2-2-.9-2-2zM684.846 382.57c-9.011-7.089.072-28.381 15.718-36.843 8.63-4.667 19.436-3.38 19.436 2.314 0 1.525-5.492 10.54-12.204 20.033-13.377 18.919-15.568 20.302-22.95 14.496zm17.212-12.903c5.027-7.15 10.584-14.94 12.35-17.313l3.21-4.312-3.76-1.429c-2.991-1.138-4.856-.938-9.141.979-9.57 4.28-20.606 18.495-20.688 26.645-.026 2.583 5.483 8.43 7.943 8.43.52 0 5.059-5.85 10.086-13zM906.6 544.094c-3.767-6.04-11.005-10.148-21.329-12.106-7.784-1.476-13.583-.898-22.314 2.224-3.14 1.122-6.506 1.735-7.48 1.361-2.382-.914-4.811-11.071-4.811-20.113 0-25.231 23.723-44.727 48.167-39.585 18.876 3.972 32.55 20.967 32.234 40.067-.159 9.596-2.653 16.534-9.084 25.27-7.357 9.993-10.571 10.596-15.383 2.882zm16.918-11.698c4.048-6.818 5.46-18.136 3.25-26.028-3.649-13.017-16.478-24.873-29.939-27.667-12.153-2.523-28.253 4.542-36.06 15.823-6.945 10.037-8.827 20.106-5.918 31.66 1.32 5.238 1.888 5.921 4.333 5.199 9.368-2.768 19.635-3.64 27.18-2.312 9.534 1.68 21.57 6.885 21.608 9.345.015.962 1.077 3.205 2.36 4.984l2.334 3.235 3.763-4.318c2.07-2.374 5.26-6.839 7.09-9.92z" />
   <path
      d="M516.788 81.588c-85.486 2.632-170.484 30.139-239.904 80.409-28.69 20.155-53.554 45.17-77.037 71.053-28.981 33.872-50.893 73.494-66.383 115.194-24.513 68.069-27.333 142.87-12.396 213.386 5.964 29.3 14.278 58.29 27.4 85.233 1.191 4.357 4.846 7.625 5.594 12.26 10.474 24.216 25.947 45.92 41.413 67.162 20.377 26.62 44.757 50.085 70.963 70.91 34.535 25.16 71.154 48.681 112.282 61.435 25.83 8.125 52.623 13.274 79.54 15.937 27.413-.087 55.113-.005 81.976-6.218 62.57-12.601 121.415-43.5 166.47-88.822 43.108-42.832 73.124-98.024 89.092-156.45 8.84-33.402 13.478-67.93 12.917-102.507.362-24.396-.236-49.2-7.745-72.644-5.456-16.79-12.593-33.877-25.108-46.672-2.9-3.74-8.61-3.947-11.287-7.618 2.441-12.41 7.82-24.331 8.155-37.2 1.978-21.696-7.848-45.812-28.578-55.104-13.238-6.79-28.79-2.977-41.217 3.742-24.273 12.327-43.122 34.538-52.508 59.954-5.066 15.03 1.373 33.206 15.818 40.41 3.513 2.8 10.394 2.333 11.928 7.139-1.396 8.297-6.321 15.737-9.21 23.615-17.113 39.457-34.673 78.945-58.013 115.195-16.376 26.06-36.684 50.037-61.333 68.597-3.066 2.195-8.726 6.05-11.422 1.232-5.49-7.656-6.95-17.057-6.622-26.28-.404-19.422 1.914-39.23 10.633-56.826 16.547-36.917 36.486-72.5 49.208-111.022 4.705-15.394 4.19-34.046-6.678-46.78-3.234-2.088-6.44-4.174-8.958-7.16-3.769-3.122-9.16-4.718-13.513-1.669-17.574 8.547-26.833 27.352-34.349 44.39-12.95 30.517-18.099 63.46-22.951 96.03-1.727 15.685-7.966 30.264-15.663 43.885-16.9 31.672-36.799 62.253-62.81 87.22-7.376 7.183-19.273 12.275-29.144 7.44-6.39-4.549-4.72-13.83-4.707-20.612 4.09-38.976 20.107-75.375 35.461-111.013 16.257-36.967 31.281-75.695 32.262-116.596.749-24.016 1.661-50.464-12.87-71.046-13.196-20.343-38.44-30.283-62.126-27.953-35.875 3.166-69.762 19.698-97.202 42.572-12.916 11.397-25.35 23.845-34.61 38.438-2.072 2.495 3.234 2.787 1.47 5.551-1.529 1.646-3.685-2.498-4.976.358-12.45 20.512-22.06 43.742-22.21 68.1-.987 11.93 1.174 24.17 7.823 34.287 8.61 16.046 27.343 21.912 44.029 25.19 9.502 1.29 19.788 4.284 29.136.858 10.06-5.039 19.787-13.128 23.59-24.016.714-2.852-.527-8.145-4-8.17-7.324 5.42-13.494 14.57-23.694 13.995-7.091.492-16.172.728-19.735-6.848-5.298-11.75-3.274-25.282-2.503-37.763 5.322-31.308 21.189-60.276 41.677-84.257 10.529-11.61 21.891-23.806 37.53-28.147 15.983-5.565 36.873-3.712 47.401 10.952 8.207 10.404 5.155 24.369 5.654 36.576.874 26.753-10.234 51.618-18.263 76.56-18.12 54.937-41.798 108.436-52.001 165.668-2.125 16.215-4.486 34.642 4.847 49.156 12.518 17.148 38.658 24.554 57.266 12.926 20.8-12.511 37.702-30.516 53.357-48.826 3.449-3.486 5.258-9.983 10.502-11.124 3.784.068 2.454 6.032 3.71 8.315 4.007 23.96 13.651 49.636 35.21 63.031 7.139 5.045 16.338 3.349 23.584-.48 29.338-14.89 52.012-39.586 74.619-62.89 38.958-41.968 71.848-89.256 101.28-138.272 14.164-23.394 26.26-47.938 38.036-72.586 1.882-5.562 9.011-4.01 13.206-2.594 10.065 9.187 14.225 23.099 17.348 35.955 3.462 20.579 2.543 41.65 2.755 62.453-.798 46.774-10.17 93.661-28.797 136.63-21.739 49.025-57.759 91.128-100.784 122.795-48.001 33.632-105.737 54.684-164.615 55.666-49.123-.25-98.24-12.6-140.99-36.97-73.645-40.588-136.272-103.541-169.77-181.292-16.382-37.114-24.421-77.27-29.754-117.294-3.18-40.24-1.713-81.339 9.271-120.38 15.542-57.746 44.55-112.78 88.139-154.259 19.449-19.895 39.787-39.174 63.515-53.935 23.77-16.359 49.3-30.358 76.93-39.002 75.862-24.558 159.454-21.281 234.769 3.69 39.07 13.104 76.12 32.846 107.93 59.095 26.788 24.68 52.528 50.72 75.292 79.194 34.547 44.421 60.536 96.875 67.3 153.21 1.054 2.705.165 8.958 4.276 9.16 12.29-1.126 24.934-1.55 37.158.473 3.174.37 9.259 3.431 10.724-1.132 1.18-14.24-2.063-28.518-4.444-42.51-8.362-40.266-27.492-77.465-49.906-111.616-22.072-32.598-49.214-61.339-76.036-90.012-37.38-38.539-83.761-67.44-132.456-89.486-44.138-19.728-92.988-28.385-141.168-28.63zm194.078 261.885c2.956.22 8.487.442 8.933 4.234-5.756 12.066-13.92 22.996-22.48 33.222-2.412 3.448-7.238 5.59-10.794 2.442-6.769-3.564-4.603-12.827-2.521-18.627 4.549-10.652 14.743-20.745 26.862-21.27zM573.819 670.951c2.768.257 1.252 4.57-.99 2.558-1.078-.796-.283-2.623.99-2.558z" />
   <path
      d="M890.504 477.978c-21.8 1.075-40.996 22.811-36.585 44.814.824 2.87.777 8.686 4.716 8.91 10.645-2.866 22.138-3.31 32.947-1.195 5.471 1.992 12.043 3.482 15.987 7.938 1.019 3.09 3.119 5.884 4.89 8.477 6.605-6.32 11.936-14.435 14.569-23.206 1.882-11.455-.103-24.399-9.128-32.507-7.051-7.543-16.724-13.631-27.396-13.23zM868.805 565.102c-11.286.236-21.592 10.729-20.675 22.21-.295 23.565-3.612 47.19-12.04 69.29-19.583 52.268-53.174 97.892-88.986 140.156-14.47 17.651-31.168 33.242-46.79 49.815-7.137 7.091-1.988 17.936 2.811 24.793 12.453 17.108 30.936 32.184 52.78 33.755 4.809.991 9.472-1.224 11.567-5.685 22.884-39.802 42.99-81.147 63.366-122.275 26.274-53.924 51.595-108.334 75.363-163.406 3.898-9.541 3.341-21.315-3.82-29.236-7.858-10.458-20.058-19.277-33.576-19.417z" />
   </svg>