<svg xmlns="http://www.w3.org/2000/svg" width="374" height="388">
   <path
      d="M207.697 359.093c-7.17-4.937-7.976-6.118-28.846-42.215a10769.461 10769.461 0 00-39.24-67.358c-7.103-12.1-8.721-15.543-7.63-16.233.762-.482 1.826-.737 2.364-.566.539.17 3.689 4.862 7 10.426 3.312 5.564 8.527 14.305 11.59 19.424 3.062 5.119 10.662 18.082 16.89 28.807 6.227 10.725 12.093 20.4 13.036 21.5.942 1.1 3.238 4.822 5.102 8.272 1.864 3.45 3.514 5.894 3.668 5.433.154-.46-5.074-10.483-11.617-22.271a205954.13 205954.13 0 01-24.022-43.296c-6.67-12.025-12.126-22.214-12.126-22.643 0-1.169 3.223-2.178 4.08-1.278.41.43 3.334 5.283 6.498 10.783 3.165 5.5 6.526 10.9 7.47 12 .944 1.1 5.68 8.975 10.527 17.5 4.846 8.525 10.016 17.075 11.49 19 1.473 1.925 7.065 11.262 12.427 20.75 5.362 9.487 10.14 17.25 10.618 17.25.478 0-.84-2.813-2.93-6.25-7.553-12.43-22.18-38.514-22.18-39.554 0-.586-2.924-5.932-6.498-11.88-3.574-5.95-6.5-11.491-6.502-12.316-.002-.825-2.44-5.55-5.415-10.5-3.907-6.497-5.126-9.345-4.385-10.24.565-.68 1.363-1.03 1.773-.777.41.254 3.128 4.637 6.038 9.74 5.36 9.396 14.387 23.293 16.539 25.46.646.652 9.383 15.391 19.414 32.755 10.032 17.363 18.713 31.862 19.292 32.22.58.358.82.244.536-.254-3.84-6.72-32.612-56.73-35.672-62.004-2.266-3.905-4.127-8.18-4.137-9.5-.009-1.32-2.67-6.9-5.912-12.4-4.288-7.273-5.614-10.341-4.861-11.25 1.769-2.136 2.524-1.47 6.804 6 4.141 7.228 8.296 13.666 13.713 21.25 1.571 2.2 9.563 15.663 17.76 29.918 8.195 14.255 15.055 25.457 15.243 24.893.188-.564-1.764-4.577-4.338-8.918-15.872-26.772-21.547-36.815-22.71-40.19-.722-2.097-4.321-8.866-7.997-15.042-3.677-6.177-6.685-11.732-6.685-12.346 0-.613-1.8-4.237-4-8.053-2.2-3.816-4-7.348-4-7.85 0-1.844 3.884-.853 4.521 1.154.36 1.136 1.965 3.556 3.564 5.378 1.6 1.822 7.717 11.805 13.593 22.184 5.877 10.38 11.214 19.322 11.86 19.872.647.55 4.464 6.85 8.483 14 8.322 14.804 7.81 14.003 8.51 13.302.292-.292-2.408-5.512-6-11.6s-6.53-11.556-6.53-12.151c0-1.09-17.498-32.354-25.624-45.784-2.407-3.978-4.377-7.885-4.377-8.683 0-1.269 3.74-3.331 4.4-2.425.136.187 4.675 7.99 10.085 17.34a9849.8 9849.8 0 0018.02 31c26.852 45.933 25.986 44.083 25.986 55.5 0 8.391-.316 10.1-2.703 14.633-1.55 2.944-4.51 6.46-6.942 8.25-3.933 2.892-4.823 3.115-12.293 3.083-7.404-.033-8.43-.295-12.722-3.25zm-95.24-45.744c-7.52-12.666-13.403-23.466-13.073-24 1.448-2.343 3.41-.355 8.666 8.779 3.086 5.362 9.056 15.717 13.266 23.01 6.899 11.946 8.114 15.24 5.623 15.24-.445 0-6.962-10.363-14.482-23.029zm170.077 14.279c-8.968-14.244-24.709-42.375-24.185-43.222.35-.565 1.196-1.028 1.882-1.028 1.41 0 26.635 43.954 26.635 46.41 0 2.696-1.859 1.768-4.332-2.16zm-148.213-36c-4.79-8.113-9.587-16.213-10.663-18-1.764-2.932-1.796-3.311-.33-3.874.893-.343 1.754-.455 1.912-.25.159.206 1.413 2.399 2.788 4.874 1.374 2.475 5.95 10.474 10.169 17.776 4.218 7.302 7.67 13.49 7.67 13.75 0 .26-.64.474-1.42.474-.78 0-5.337-6.638-10.126-14.75zm108.443 12.028c-.861-1.528-6.856-11.868-13.322-22.979-10.913-18.753-12.39-22.308-9.267-22.294 1.096.005 26.22 43.018 26.894 46.045.576 2.58-2.751 1.983-4.305-.772zM96.198 283.128c-7.53-11.885-12.353-21.129-11.479-22.003.902-.901 2.356 1.31 12.532 19.057 3.963 6.91 4.067 7.196 2.628 7.196-.543 0-2.2-1.913-3.68-4.25zm159.342-3c-12.342-20.241-14.064-23.75-11.656-23.75.695 0 13.293 21.033 14.526 24.25.977 2.55-1.246 2.163-2.87-.5zm23.147-10.086c-5.474-1.543-10.396-5.07-15.283-10.95-2.787-3.353-25.538-41.982-25.538-43.36 0-.195 1.125-.354 2.5-.354 3.058 0 4.89 1.854 9.816 9.939 5.015 8.228 5.924 7.103 1.154-1.427l-3.713-6.639 4.349.313 4.348.314 7.136 11.5c9.894 15.944 12.64 15.927 3.357-.021-3.897-6.696-6.909-12.35-6.693-12.566.216-.216 1.78-.67 3.476-1.01 3.555-.71 2.1-2.585 14.827 19.097 4.842 8.25 9.286 15.33 9.874 15.735 2.44 1.675 2.631.54.505-2.985-6.27-10.394-18.928-32.854-18.932-33.59-.004-.874 4.056-4.569 5.085-4.627.323-.018 4.148 6.266 8.5 13.965 5.345 9.458 8.016 13.343 8.234 11.979.178-1.12-2.938-7.91-7-15.249-7.262-13.119-7.31-13.255-5.823-16.456.825-1.776 1.801-3.239 2.17-3.25.368-.012 2.896 3.856 5.617 8.597 2.722 4.74 5.234 8.156 5.584 7.59.35-.565-1.729-5.456-4.618-10.868-4.923-9.222-5.221-10.187-4.753-15.341l.5-5.5 2.676 4.113c6.01 9.238 22.322 38.21 24.012 42.648 5.129 13.473-.716 31.307-12.21 37.25-4.154 2.148-13.609 2.717-19.157 1.153zm-160.575-7.7c-2.06-3.388-4.758-7.71-5.996-9.606-2.409-3.69-2.818-5.358-1.313-5.358 1.429 0 13.023 19.907 11.973 20.556-.506.312-2.604-2.204-4.664-5.592zm97.407-7.214c-4.939-7.973-12.653-21.81-12.653-22.694 0-2.585 2.004-.524 6.025 6.194 9.301 15.542 10.917 18.75 9.444 18.75-.782 0-2.05-1.013-2.816-2.25zm116.24-4.25c-6.057-9.6-12.85-23.408-11.829-24.04.588-.363 1.18-.503 1.314-.31 2.863 4.094 13.615 25.607 13.374 26.757-.228 1.08-1.147.307-2.859-2.407zm-92.26.25c-5.416-8.627-6.717-11-6.272-11.445.958-.957 2.457.71 5.793 6.445 4.228 7.269 4.22 7.25 2.953 7.25-.584 0-1.696-1.013-2.473-2.25zM105.96 240.706c-3.199-4.83-3.842-6.744-2.067-6.152 1.415.471 7.237 10.824 6.088 10.824-.51 0-2.319-2.102-4.02-4.672zm60.31-22.735c-8.8-2.136-16.48-9.34-19.8-18.573-2.374-6.605-1.813-18.37 1.204-25.208 2.483-5.628 8.295-11.676 13.725-14.282 4.951-2.376 19.482-3.267 26.098-1.601 9.26 2.331 17.494 10.363 20.182 19.687 2.77 9.608.944 21.782-4.435 29.555-6.774 9.79-21.953 14.068-36.974 10.422zm18.75-14.19c4.688-2.394 6.846-7.239 6.846-15.37 0-8.901-1.778-12.978-6.922-15.87-7.276-4.089-16.448-2.105-20.773 4.494-2.225 3.394-2.553 17.656-.493 21.436 3.792 6.96 13.423 9.356 21.342 5.31zM62.866 217.75c0-.554-4.647-18.706-12.38-48.357-1.765-6.765-2.173-9.848-1.425-10.75 1.412-1.702 14.218-1.714 15.515-.015.525.687 2.422 7.55 4.216 15.25s3.392 14.45 3.552 15c.39 1.35.825.064 5.066-15 2.012-7.15 4.08-13.788 4.593-14.75.777-1.456 2.36-1.75 9.42-1.75 9.878 0 8.853-1.142 13.002 14.5 1.458 5.5 3.201 11.791 3.873 13.98l1.222 3.98 1.652-6.48c.909-3.564 2.7-10.755 3.981-15.98l2.329-9.5h7.333c9.821 0 10.057.467 6.595 13.075-7.366 26.827-11.21 41.165-11.99 44.713l-.611 2.789-8.64-.289c-8.241-.275-8.676-.404-9.391-2.788-.413-1.375-1.73-5.875-2.93-10C93.05 188.867 91.116 183.165 90.6 184c-.298.482-1.215 3.352-2.037 6.377-.823 3.025-2.724 9.55-4.225 14.5-1.5 4.95-2.949 10.012-3.217 11.25-.461 2.128-.97 2.25-9.371 2.25-4.886 0-8.884-.283-8.884-.628zm242-29.265c0-26.336.188-29.965 1.582-30.5 2.406-.923 42.732-.695 44.223.251.894.567 1.209 2.686 1 6.735l-.305 5.907-14.75.277-14.75.276v8.947h11.8c7.845 0 12.202.402 13 1.2.66.66 1.2 3.495 1.2 6.3 0 2.805-.54 5.64-1.2 6.3-.798.798-5.155 1.2-13 1.2h-11.8v9.918c0 5.455-.273 10.63-.607 11.5-.482 1.258-2.225 1.582-8.5 1.582h-7.893zm-59 16.187c-4.566-1.67-8.344-7.33-9.373-14.044-.85-5.552.636-5.446 3.48.25 1.236 2.475 2.599 4.5 3.028 4.5.782 0 5.865 8.093 5.865 9.338 0 .755-.846.743-3-.044zm6.184-.573c-.584-.703-4.076-7.262-7.76-14.576-6.049-12.003-6.55-13.447-5.152-14.845 1.397-1.398 1.782-1.317 3.956.826 3.65 3.598 17.017 26.794 16.387 28.435-.684 1.784-5.989 1.898-7.431.16zm2.268-15.994c-10.457-18.482-10.107-17.7-8.388-18.787.79-.5 2.135-.916 2.99-.925 1.478-.014 7.506 8.478 15.234 21.462 3.442 5.784 3.505 6.066 1.938 8.719-.891 1.507-2.115 2.931-2.721 3.164-.606.232-4.68-5.902-9.053-13.633zm9.578-3.977c-1.656-2.888-3.015-5.787-3.02-6.443-.005-.656-.954-2.793-2.109-4.75-1.23-2.084-1.629-3.557-.964-3.557 2.061 0 5.998 3.158 7.921 6.353 2.166 3.599 3.783 13.647 2.197 13.647-.558 0-2.37-2.363-4.025-5.25zm-56.784-21.5c-12.261-21.427-24.756-43.13-49.633-86.215-6.022-10.43-10.416-19.105-10.098-19.934 1.19-3.1 2.567-.86 41.765 67.899 5.487 9.625 10.753 18.4 11.703 19.5.95 1.1 6.067 9.48 11.372 18.622 6.595 11.365 9.645 17.612 9.645 19.75 0 1.72-.39 3.128-.867 3.128s-6.726-10.238-13.887-22.75zm14.817 7.5c-4.447-7.057-11.063-19.077-11.063-20.101 0-1.197-12.978-23.76-45.965-79.918-9.493-16.16-10.646-18.95-8.035-19.431 1.012-.187 4.788 5.498 11.6 17.461 34.425 60.464 47.002 82.064 49.34 84.739.963 1.1 3.45 4.85 5.529 8.334 3.404 5.706 3.65 6.575 2.486 8.75-1.597 2.985-2.101 3.006-3.892.166zm6.952-7.722c-.558-1.043-1.015-2.439-1.015-3.1 0-1.243-2.255-5.23-35.03-61.928-25.488-44.094-25.414-43.956-24.183-45.186 1.044-1.045 2.67 1.527 19.717 31.186 9.5 16.529 27.754 48.207 37.365 64.843 3.922 6.788 7.131 12.928 7.131 13.643 0 2.194-2.89 2.587-3.985.542zm35.7-3.202c-2.147-.783-4.84-4.488-11.75-16.16-4.93-8.33-8.965-15.702-8.965-16.383 0-1.109-12.631-23.601-41.34-73.612-5.313-9.255-9.66-17.276-9.66-17.823 0-.547.743-.85 1.65-.671.966.189 7.923 11.316 16.77 26.823 24.685 43.265 31.833 55.376 33.629 56.98 1.607 1.436 23.951 40.048 23.951 41.39 0 .813-.867.703-4.285-.544zm-28.808-8.076c-2.3-3.988-6.31-10.85-8.91-15.25-4.578-7.747-14.892-25.58-33.134-57.294-6.914-12.02-8.475-15.418-7.287-15.873.83-.32 1.63-.412 1.776-.207.146.206 4.69 8.024 10.1 17.374 14.198 24.543 30.901 53.33 38.212 65.855 3.485 5.97 6.336 11.258 6.336 11.75 0 .492-.655.895-1.456.895-.8 0-3.337-3.263-5.637-7.25zm10.843.893c-1.512-2.394-2.75-5.102-2.75-6.018 0-.916-1.118-3.435-2.484-5.6-1.366-2.163-7.6-12.842-13.853-23.73-6.253-10.887-12.941-22.495-14.862-25.795L196.02 62.275c-7.234-12.432-13.154-23.12-13.154-23.75 0-2.56 2.645-.874 4.88 3.11 1.309 2.334 7.202 12.568 13.097 22.743 5.894 10.175 16.916 29.3 24.492 42.5 7.577 13.2 14.958 25.761 16.404 27.914 3.487 5.196 13.127 20.789 13.127 21.234 0 .194-1.237.351-2.75.35-2.157 0-3.343-.94-5.5-4.355zm-72.58-10.393c-8.67-14.936-10.712-18.45-11.67-20.075-7.13-12.103-10.5-18.296-10.5-19.3 0-.67-.61-1.928-1.355-2.796-2.762-3.218-14.63-25.294-14.079-26.186.315-.51.94-.699 1.389-.421 1.296.8 14.045 24.278 14.045 25.864 0 .787.788 1.645 1.75 1.907 2.076.566 27.654 45.295 26.744 46.767-1.232 1.993-2.487.85-6.324-5.76zm150.815 2.5c-1.31-2.338-6.124-10.507-10.697-18.154-4.573-7.647-8.127-14.09-7.898-14.32.229-.228-2.415-5.084-5.875-10.79-5.731-9.45-6.527-11.486-4.49-11.486.61 0 6.149 8.967 11.733 19 3.574 6.42 19.496 33.472 20.879 35.472 1.727 2.5 1.748 4.528.047 4.528-.723 0-2.388-1.913-3.699-4.25zM152.97 131.609a14542.482 14542.482 0 00-13.346-22.92c-5.56-9.523-6.354-12.349-3.449-12.285 1.287.028 25.983 42.957 26.51 46.082.843 4.986-2.998.686-9.715-10.877zm134.356 1.573c-15.322-25.803-23.83-40.65-24.243-42.304-.274-1.1-4.035-7.917-8.358-15.148-7.694-12.873-9.04-15.912-6.695-15.13 1.62.54 15.852 25.015 15.369 26.43-.217.633.362 1.36 1.286 1.617 1.584.44 27.181 44.28 27.181 46.554 0 2.839-2.249 1.838-4.54-2.019zm-192.96.318c-4.04-1.06-8.348-3.49-12.138-6.844-3.029-2.68-57.835-98.546-59.096-103.37-1.784-6.821 4.241 2.44 22.815 35.066 11.38 19.99 21.598 37.06 22.708 37.935 1.11.875 3.65 4.871 5.646 8.88 1.997 4.009 4.057 7.025 4.58 6.702 1.33-.822-13.464-30.076-31.256-61.803-11.112-19.815-14.743-27.104-13.914-27.933 1.342-1.342 1.029-1.69 5.173 5.745 1.84 3.3 4.318 7.35 5.507 9 1.19 1.65 6.115 10.2 10.946 19 4.831 8.8 9.826 17.125 11.099 18.5 1.273 1.375 7.412 11.495 13.642 22.49 6.877 12.137 12.003 20.12 13.047 20.321 1.349.26.889-1.143-2.129-6.49-21.543-38.173-26.13-46.527-26.134-47.59-.002-.677-3.152-6.574-7-13.104-3.847-6.53-7.01-12.83-7.028-14-.017-1.17-.692-3-1.5-4.068-.807-1.068-1.468-2.53-1.468-3.25 0-2.688 1.77-1.149 4.53 3.94 3.06 5.643 10.629 17.297 12.826 19.75 1.92 2.145 20.63 34.974 20.717 36.352.12 1.88 20.382 36.967 21.58 37.366.605.202 1.394-.396 1.752-1.329.431-1.125-2.509-7.114-8.734-17.792L78.009 68.341c-8.662-14.854-13.153-23.547-13.174-25.5-.017-1.63-1.14-4.763-2.495-6.963-2.466-4.004-3.132-6.511-1.724-6.487.863.015 8.122 10.794 10.766 15.987.98 1.925 3.47 5.975 5.532 9 3.47 5.09 18.808 31.061 29.08 49.24 4.106 7.268 5.872 9.262 5.872 6.631 0-.62-6.78-12.99-15.066-27.486-8.286-14.497-15.475-27.786-15.976-29.532-.5-1.746-4.296-9.13-8.434-16.408-4.138-7.278-7.524-13.73-7.524-14.339 0-.608.812-1.106 1.805-1.106 1.303 0 4.976 5.62 13.231 20.25 14.647 25.955 29.8 51.155 31.016 51.583 2.054.723.668-2.709-5.968-14.766-3.804-6.912-7.794-14.817-8.866-17.567s-6.013-12.2-10.98-21c-7.77-13.767-8.836-16.203-7.641-17.457.876-.92 1.725-1.104 2.299-.5 1.36 1.431 39.029 68.173 41.74 73.957 5.938 12.665.802 30.085-10.61 35.987-3.761 1.945-12.176 2.777-16.526 1.635zm31.168-50.766c-5.244-8.832-7.226-13.011-6.409-13.516.651-.402 1.262-.643 1.359-.536.096.108 3.408 5.762 7.36 12.564 4.55 7.833 6.836 12.718 6.233 13.321-.603.603-3.736-3.736-8.543-11.833zm164.498-.35c-2.17-3.949-2.85-6.001-1.983-5.992.724.008 2.555 2.258 4.067 5 3.046 5.523 3.286 6.307 2.059 6.716-.463.155-2.327-2.422-4.143-5.725zm-177.1-22.224c-3.88-6.056-4.905-8.782-3.306-8.782.79 0 1.698 1.316 6.365 9.218 4.215 7.14 1.549 6.758-3.06-.436z" />
   </svg>